<?xml version="1.0" encoding="utf-8"?>
<!-- Generator: Adobe Illustrator 18.1.0, SVG Export Plug-In . SVG Version: 6.00 Build 0)  -->
<svg version="1.1" id="Layer_1" xmlns="http://www.w3.org/2000/svg" xmlns:xlink="http://www.w3.org/1999/xlink" x="0px" y="0px"
	 viewBox="0 0 346.5 212.6" enable-background="new 0 0 346.5 212.6" xml:space="preserve">
<path fill="#FE5A40" d="M225.6,58.8c-11.5-2-24.3,3.1-33.5-7.1c0.1-0.6,0.1-1.1,0.2-1.7c7.6-0.5,15.2-2.1,22.7-1.3
	c11.3,1.2,17.4-2.6,21-13.7c3.5-10.8,5.9-10.9,16.2-5.6c2.3,1.2,4.5,2.7,7,4.3c-1.5,2.6-2.8,4.7-3.9,6.8c-1.1,2-2,4.1-3.2,6.6
	c5.3,0,10,0.2,14.5-0.2c1.3-0.1,2.9-1.9,3.6-3.3c2.4-4.7,4.2-9.8,6.9-14.4c0.9-1.5,4-3.1,5.4-2.7c5.2,1.7,10.2,4.3,15.2,6.5
	c-2.8,5.2-5.1,9.4-7.7,14.3c11,0,21-0.1,30.9,0c9.6,0.1,12.1,2.6,13.4,12.8c-9.1-0.6-18.1-1.4-27.2-1.6c-4-0.1-8.4-2-12,1.8
	c-0.5,0.5-2.3,0.2-3.4-0.2c-5.4-2.1-7.6,0.4-9.1,5.3c-8,25.7-16.2,51.3-24.4,76.9c-0.2,0.6-0.3,1.2,0,2c9.4-12.2,20.4-22.9,26-37.9
	c4.2-11.3,10.3-21.8,15.7-32.6c0.9-1.9,2.7-3.4,4.2-4.9c5.8-5.7,9-6.2,15.7-1.8c4.1,2.7,8,6,11.8,9.2c5.1,4.3,6.4,10,4.8,16.3
	c-2.6,9.7-7.4,18.2-15.4,24.5c-7.1,5.6-12.5,5.6-21-0.2c-2,9.3-4.1,18-5.5,26.9c-0.4,2.6,1.1,5.6,1.8,8.3c2.8-0.8,6.1-0.9,8.2-2.6
	c8.2-6.8,16.3-13.7,23.8-21.3c6.3-6.4,11.5-13.7,18.2-21.8c-0.4,3.4-0.2,5.8-0.9,7.9c-6.6,19.9-18.4,36.4-33.7,50.4
	c-6.1,5.6-12.6,4-19,0.6c-10.9-5.8-15.8-13.7-16.3-26.3c-5,7.3-9.4,14.6-14.5,21.4c-7,9.1-8,11.9-18.1,0c-4.5-5.4-6-11.3-4.3-18.1
	c0.6-2.6,1-5.2,1.8-9.3c-3.8,6.3-6.7,11.5-10,16.4c-3.8,5.6-8,11-12.2,16.4c-2.2,2.8-4.8,3-7.7,0.6c-8.1-6.9-13.3-14.8-9.8-26.1
	c0.4-1.4,0.6-2.9,0.1-4.8c-2.5,3.5-4.8,7.2-7.5,10.6c-4.8,5.8-9.6,11.4-14.8,16.9c-6.2,6.5-11.5,7.4-21.2,2.2
	c-12.4-6.7-16.9-15.9-15.1-30.1c2.8-21.6,9.3-41.8,21.6-59.9c9-13.2,14.2-13.9,26.6-4.2c13.3,10.4,15.8,17,4.1,36.5
	c-2.5,4.1-6.3,7.8-10.3,10.7c-6.8,4.9-11.4,4.4-18.6-0.8c-3.3,10-6.8,19.8-6.3,30.4c0.2,5,3.3,6.6,7.5,3.4
	c8.1-6.1,15.7-12.8,23.3-19.5c2.9-2.5,5.2-5.6,7.8-8.4c6.6-7,11.1-15,13.8-24.4C216.3,85.5,221.1,72.4,225.6,58.8z M263.7,58.4
	c-4.2,0-8.2,0.3-12.2-0.1c-3.5-0.3-5,1-6,4.2c-5.9,17.9-12.2,35.7-18.1,53.7c-3,9.1-5.4,18.4-8.1,27.6c1.4-0.1,1.9-0.5,2.3-1
	c1.2-1.4,2.4-2.8,3.6-4.1C246.6,116.3,255.1,87.6,263.7,58.4z M322.2,77.4c-10.4,10-14.4,21.8-19.1,34.1
	C315.4,107.1,323.3,93.2,322.2,77.4z M168.7,111.5c12.5-4.3,21.8-21.1,18.8-33.6C177.5,87.1,173.7,99.1,168.7,111.5z"/>
<path fill="#FE5A40" d="M67.5,129.3c-10,12.3-20,24.4-29.9,36.7c-1.1,1.4-1.5,3.3-2.1,5c-4.6,11.7-9.1,23.5-13.8,35.2
	c-0.9,2.2-2.6,4.2-4,6.4c-6.2-2.7-10.1-7.1-13.2-12.2c-0.7-1.2-0.4-3.6,0.3-5.1c2-4.6,4-9.2,6.6-13.4c7.3-11.8,11.1-24.6,14.3-38
	c5.9-24.9,12.7-49.5,23.3-72.9c3.4-7.5,4.4-7.9,12.2-4.7c3.3,1.4,6.4,3.3,9.3,4.9c-4.9,11.9-9.8,23-14,34.3
	c-4.2,11.1-7.9,22.4-11.8,33.6c0.5,0.3,1,0.6,1.5,1c8.2-9.8,17-19.1,24.3-29.5c3.2-4.6,3.3-11.3,4.9-17.1
	c6.1-20.9,12-41.8,18.5-62.5c3.1-9.9,4.8-10.2,13.7-4.9c4.2,2.5,8.1,5.6,12.3,8.5c-8,8.2-11.1,17.9-14.3,27.4
	c-9.2,27.1-16.8,54.6-21.7,82.8c-0.6,3.7-0.6,7.4-0.9,11.2c0.5,0.2,0.9,0.5,1.4,0.7c2-2.1,4.1-4,5.9-6.3c15.3-19.9,27-42,38.1-64.3
	c7.4-14.8,13.8-30.2,20.3-45.5c2.2-5.3,3.2-11.1,4.9-17c7.4,3,12.9,8.6,16.6,16.2c0.6,1.3,0.4,3.4-0.2,4.8
	c-16,43.3-36.9,84-67.3,119.2c-8.4,9.8-11.3,9.7-21.9,2.3c-1.2-0.9-2.4-1.8-3.6-2.7c-9.6-7.1-12.8-16.6-10.3-28.1
	C67.2,133.3,67.3,131.2,67.5,129.3z"/>
<path fill="#FE5A40" d="M91.1,10.7C85.3,22.1,80,32.5,74.7,43c-6.2-2-10.5-7.5-9.3-14.1C66.8,21.8,69,15,71.6,9.7
	c3.1-6.6,6.6-7.1,13-3.4C87.1,7.7,89.4,9.6,91.1,10.7z"/>
<path fill="#FFFFFF" d="M221.6,54.8c-11.5-2-24.3,3.1-33.5-7.1c0.1-0.6,0.1-1.1,0.2-1.7c7.6-0.5,15.2-2.1,22.7-1.3
	c11.3,1.2,17.4-2.6,21-13.7c3.5-10.8,5.9-10.9,16.2-5.6c2.3,1.2,4.5,2.7,7,4.3c-1.5,2.6-2.8,4.7-3.9,6.8c-1.1,2-2,4.1-3.2,6.6
	c5.3,0,10,0.2,14.5-0.2c1.3-0.1,2.9-1.9,3.6-3.3c2.4-4.7,4.2-9.8,6.9-14.4c0.9-1.5,4-3.1,5.4-2.7c5.2,1.7,10.2,4.3,15.2,6.5
	c-2.8,5.2-5.1,9.4-7.7,14.3c11,0,21-0.1,30.9,0c9.6,0.1,12.1,2.6,13.4,12.8c-9.1-0.6-18.1-1.4-27.2-1.6c-4-0.1-8.4-2-12,1.8
	c-0.5,0.5-2.3,0.2-3.4-0.2c-5.4-2.1-7.6,0.4-9.1,5.3c-8,25.7-16.2,51.3-24.4,76.9c-0.2,0.6-0.3,1.2,0,2c9.4-12.2,20.4-22.9,26-37.9
	c4.2-11.3,10.3-21.8,15.7-32.6c0.9-1.9,2.7-3.4,4.2-4.9c5.8-5.7,9-6.2,15.7-1.8c4.1,2.7,8,6,11.8,9.2c5.1,4.3,6.4,10,4.8,16.3
	c-2.6,9.7-7.4,18.2-15.4,24.5c-7.1,5.6-12.5,5.6-21-0.2c-2,9.3-4.1,18-5.5,26.9c-0.4,2.6,1.1,5.6,1.8,8.3c2.8-0.8,6.1-0.9,8.2-2.6
	c8.2-6.8,16.3-13.7,23.8-21.3c6.3-6.4,11.5-13.7,18.2-21.8c-0.4,3.4-0.2,5.8-0.9,7.9c-6.6,19.9-18.4,36.4-33.7,50.4
	c-6.1,5.6-12.6,4-19,0.6c-10.9-5.8-15.8-13.7-16.3-26.3c-5,7.3-9.4,14.6-14.5,21.4c-7,9.1-8,11.9-18.1,0c-4.5-5.4-6-11.3-4.3-18.1
	c0.6-2.6,1-5.2,1.8-9.3c-3.8,6.3-6.7,11.5-10,16.4c-3.8,5.6-8,11-12.2,16.4c-2.2,2.8-4.8,3-7.7,0.6c-8.1-6.9-13.3-14.8-9.8-26.1
	c0.4-1.4,0.6-2.9,0.1-4.8c-2.5,3.5-4.8,7.2-7.5,10.6c-4.8,5.8-9.6,11.4-14.8,16.9c-6.2,6.5-11.5,7.4-21.2,2.2
	c-12.4-6.7-16.9-15.9-15.1-30.1c2.8-21.6,9.3-41.8,21.6-59.9c9-13.2,14.2-13.9,26.6-4.2c13.3,10.4,15.8,17,4.1,36.5
	c-2.5,4.1-6.3,7.8-10.3,10.7c-6.8,4.9-11.4,4.4-18.6-0.8c-3.3,10-6.8,19.8-6.3,30.4c0.2,5,3.3,6.6,7.5,3.4
	c8.1-6.1,15.7-12.8,23.3-19.5c2.9-2.5,5.2-5.6,7.8-8.4c6.6-7,11.1-15,13.8-24.4C212.3,81.5,217.1,68.4,221.6,54.8z M259.7,54.4
	c-4.2,0-8.2,0.3-12.2-0.1c-3.5-0.3-5,1-6,4.2c-5.9,17.9-12.2,35.7-18.1,53.7c-3,9.1-5.4,18.4-8.1,27.6c1.4-0.1,1.9-0.5,2.3-1
	c1.2-1.4,2.4-2.8,3.6-4.1C242.6,112.3,251.1,83.6,259.7,54.4z M318.2,73.4c-10.4,10-14.4,21.8-19.1,34.1
	C311.4,103.1,319.3,89.2,318.2,73.4z M164.7,107.5c12.5-4.3,21.8-21.1,18.8-33.6C173.5,83.1,169.7,95.1,164.7,107.5z"/>
<path fill="#FFFFFF" d="M63.5,125.3c-10,12.3-20,24.4-29.9,36.7c-1.1,1.4-1.5,3.3-2.1,5c-4.6,11.7-9.1,23.5-13.8,35.2
	c-0.9,2.2-2.6,4.2-4,6.4c-6.2-2.7-10.1-7.1-13.2-12.2c-0.7-1.2-0.4-3.6,0.3-5.1c2-4.6,4-9.2,6.6-13.4c7.3-11.8,11.1-24.6,14.3-38
	c5.9-24.9,12.7-49.5,23.3-72.9c3.4-7.5,4.4-7.9,12.2-4.7c3.3,1.4,6.4,3.3,9.3,4.9c-4.9,11.9-9.8,23-14,34.3
	c-4.2,11.1-7.9,22.4-11.8,33.6c0.5,0.3,1,0.6,1.5,1c8.2-9.8,17-19.1,24.3-29.5c3.2-4.6,3.3-11.3,4.9-17.1
	c6.1-20.9,12-41.8,18.5-62.5c3.1-9.9,4.8-10.2,13.7-4.9c4.2,2.5,8.1,5.6,12.3,8.5c-8,8.2-11.1,17.9-14.3,27.4
	c-9.2,27.1-16.8,54.6-21.7,82.8c-0.6,3.7-0.6,7.4-0.9,11.2c0.5,0.2,0.9,0.5,1.4,0.7c2-2.1,4.1-4,5.9-6.3c15.3-19.9,27-42,38.1-64.3
	c7.4-14.8,13.8-30.2,20.3-45.5c2.2-5.3,3.2-11.1,4.9-17c7.4,3,12.9,8.6,16.6,16.2c0.6,1.3,0.4,3.4-0.2,4.8
	c-16,43.3-36.9,84-67.3,119.2c-8.4,9.8-11.3,9.7-21.9,2.3c-1.2-0.9-2.4-1.8-3.6-2.7c-9.6-7.1-12.8-16.6-10.3-28.1
	C63.2,129.3,63.3,127.2,63.5,125.3z"/>
<path fill="#FFFFFF" d="M87.1,6.7C81.3,18.1,76,28.5,70.7,39c-6.2-2-10.5-7.5-9.3-14.1C62.8,17.8,65,11,67.6,5.7
	c3.1-6.6,6.6-7.1,13-3.4C83.1,3.7,85.4,5.6,87.1,6.7z"/>
</svg>
